<svg viewBox="0 0 100 100" xmlns="http://www.w3.org/2000/svg"><ellipse cx="81" cy="36" rx="8" ry="18" fill="#7fc8ff" transform="rotate(20 81 36)"/><path d="M18 48 Q50 8 82 48 Q82 28 50 22 Q18 28 18 48 Z" fill="#7fc8ff"/><circle cx="50" cy="56" r="28" fill="#ffe0c4"/><path d="M22 46 Q50 14 78 46 Q62 32 50 32 Q36 32 22 46 Z" fill="#7fc8ff"/><ellipse cx="40" cy="57" rx="3.2" ry="4.2" fill="#0c558c"/><ellipse cx="60" cy="57" rx="3.2" ry="4.2" fill="#0c558c"/><circle cx="41.2" cy="55.2" r="1" fill="#fff"/><circle cx="61.2" cy="55.2" r="1" fill="#fff"/><ellipse cx="33" cy="65" rx="4" ry="2.4" fill="#ff9fb0" opacity="0.55"/><ellipse cx="67" cy="65" rx="4" ry="2.4" fill="#ff9fb0" opacity="0.55"/><path d="M46 69 Q50 72 54 69" stroke="#0c558c" stroke-width="1.6" fill="none" stroke-linecap="round"/></svg>
